OpenSim_Sub09_CSStiffKnee_LCS.mot
version=1
nRows=38
nColumns=11
inDegrees=no
endheader
time	Bot_Shank	2nd_Bot_Shank	2nd_Top_Shank	Top_Shank	Bot_Thigh	Med_Thigh	Top_Thigh	BNOx	BNOy	BNOZ
35.63000000	10435.64785047	10411.19354906	11229.68457510	10662.94281336	13303.41072323	14540.19412371	14972.91478070	191.20895833	-87.14879280	27.93421140
35.64000000	10429.57261322	10404.08676999	11229.54121774	10648.83726446	13300.76720977	14537.66096409	14955.97804864	192.23018248	-87.82686670	49.71421429
35.65000000	10424.86549875	10398.66724469	11229.43967627	10636.71268138	13296.60540009	14534.07682748	14938.64730463	193.26783078	-88.26341769	71.97423696
35.66000000	10421.61221433	10394.96457388	11229.38032086	10626.82230953	13291.51915983	14529.86685290	14922.60283998	194.34159953	-88.45904945	93.92287230
35.67000000	10419.89846728	10393.00835828	11229.36352168	10619.41939431	13286.10235462	14525.45617935	14909.52494601	195.47118500	-88.41436572	114.76871323
35.68000000	10419.80996487	10392.82819862	11229.38964889	10614.75718113	13280.94885012	14521.26994584	14901.09391403	196.67628348	-88.12997019	133.72035265
35.69000000	10421.43241440	10394.45369563	11229.45907265	10613.08891539	13276.65251195	14517.73329138	14898.99003537	197.97659126	-87.60646658	149.98638347
35.70000000	10424.85152318	10397.91445001	11229.57216314	10614.66784248	13273.80720576	14515.27135500	14904.89360132	199.39180462	-86.84445859	162.77539861
35.71000000	10430.15299848	10403.24006250	11229.72929052	10619.74720782	13273.00679718	14514.30927568	14920.48490323	200.94161986	-85.84454994	171.29599096
35.72000000	10437.42254762	10410.46013382	11229.93082495	10628.58025681	13274.84515185	14515.27219245	14947.44423238	202.64573325	-84.60734433	174.75675344
35.73000000	10446.70018950	10419.57480953	11230.17668818	10641.34499492	13279.82022005	14518.51844108	14987.08680560	204.51957697	-83.13828103	172.49993109
35.74000000	10457.55427376	10430.28015136	11230.46217255	10657.44267965	13287.43975872	14523.71670652	15036.95895086	206.53456222	-81.49271964	165.24754219
35.75000000	10469.27489046	10442.09282791	11230.77983931	10675.81632886	13296.62736390	14530.12881669	15092.38355396	208.63613014	-79.75547009	154.53559718
35.76000000	10481.14853323	10454.52718917	11231.12221441	10695.40303774	13306.29908140	14537.01134098	15148.65476306	210.76938625	-78.01172295	141.91062721
35.77000000	10492.46169568	10467.09758510	11231.48182381	10715.13990145	13315.37095707	14543.62084875	15201.06672633	212.87943604	-76.34666878	128.91916346
35.78000000	10502.50087142	10479.31836567	11231.85119346	10733.96401518	13322.75903675	14549.21390940	15244.91359192	214.91138501	-74.84549817	117.10773710
35.79000000	10510.58713768	10490.71411042	11232.22211229	10750.84569996	13327.43994923	14553.08648617	15275.74764480	216.81193663	-73.58944530	107.95253355
35.80000000	10516.55904523	10500.96246328	11232.57534122	10765.25243391	13329.29682434	14555.12399148	15292.98366116	218.55170461	-72.60054540	101.87715774
35.81000000	10520.65349697	10509.85889746	11232.88315181	10777.03440768	13328.91061812	14555.66559687	15299.00977063	220.11970884	-71.85526221	98.49493600
35.82000000	10523.11764281	10517.20191714	11233.11759721	10786.05165660	13326.88023714	14555.06214617	15296.29058781	221.50544266	-71.32888719	97.39835152
35.83000000	10524.19863265	10522.79002652	11233.25073060	10792.16421600	13323.80458795	14553.66448316	15287.29072731	222.69839942	-70.99671182	98.17988744
35.84000000	10524.14361639	10526.42172979	11233.25460514	10795.23212123	13320.28257714	14551.82345166	15274.47480372	223.68807248	-70.83402757	100.43202695
35.85000000	10523.19974395	10527.89553114	11233.10127399	10795.11540761	13316.91311125	14549.88989549	15260.30743165	224.46395517	-70.81612591	103.74725321
35.86000000	10521.61416522	10527.00993476	11232.76279034	10791.67411049	13314.29509687	14548.21465843	15247.25322569	225.01554084	-70.91829832	107.71804938
35.87000000	10519.63403012	10523.56344484	11232.21120733	10784.76826520	13313.02744054	14547.14858431	15237.77680045	225.33232286	-71.11583626	111.93689864
35.88000000	10517.50533579	10517.42328630	11231.42882441	10774.33147196	13313.64340738	14547.00680946	15234.11379674	225.40667714	-71.38471995	116.01129903
35.89000000	10515.46217890	10509.16613045	11230.50371954	10761.05678651	13315.99860516	14547.73584001	15236.13601820	225.26073830	-71.70803981	119.70375656
35.90000000	10513.73163547	10499.78718389	11229.58637437	10746.08530260	13319.54886025	14549.06471005	15242.32073133	224.93419698	-72.07308091	122.86822358
35.91000000	10512.54069077	10490.28706271	11228.82807708	10730.56390481	13323.74483187	14550.71964289	15251.12717849	224.46697073	-72.46718255	125.35983437
35.92000000	10512.11633005	10481.66638302	11228.38011585	10715.63947771	13328.03717927	14552.42686181	15261.01460200	223.89897709	-72.87768402	127.03372322
35.93000000	10512.68553861	10474.92576093	11228.39377888	10702.45890587	13331.87656167	14553.91259012	15270.44224421	223.27013362	-73.29192461	127.74502442
35.94000000	10514.47530169	10471.06581254	11229.02035435	10692.16907387	13334.71363833	14554.90305112	15277.86934747	222.62035786	-73.69724361	127.34887226
35.95000000	10517.71260457	10471.08715396	11230.41113046	10685.91686627	13335.99906847	14555.12446810	15281.75515412	221.98956735	-74.08098031	125.70040102
35.96000000	10522.59009272	10475.88313714	11232.70205684	10684.74163991	13335.23693387	14554.32856578	15280.68361679	221.41512657	-74.43128657	122.70670480
35.97000000	10528.94590058	10485.23976044	11235.87073381	10688.57267639	13332.48282991	14552.53033559	15274.52614932	220.90804296	-74.74470278	118.81129081
35.98000000	10536.40902015	10498.28974294	11239.80134412	10696.68437255	13328.11771547	14549.90008219	15263.91369853	220.46377471	-75.02271813	114.77412120
35.99000000	10544.60574028	10514.15736023	11244.37686307	10708.34266093	13322.52675467	14546.61011766	15249.48702811	220.07757907	-75.26688580	111.35924828
36.00000000	10553.16234983	10531.96688788	11249.48026599	10722.81347409	13316.09511163	14542.83275408	15231.88690174	219.74471327	-75.47875894	109.33072431
